<svg xmlns="http://www.w3.org/2000/svg" viewBox="0 0 800 500" width="100%" height="100%">
  <defs>
    <linearGradient id="omsGrad" x1="0%" y1="0%" x2="100%" y2="100%">
      <stop offset="0%" stop-color="#CDEAF4"/>
      <stop offset="100%" stop-color="#EAF6FA"/>
    </linearGradient>
  </defs>
  <rect width="800" height="500" fill="url(#omsGrad)"/>
  
  <!-- Dashboard Main Frame -->
  <rect x="40" y="40" width="720" height="420" rx="12" fill="#FFFFFF" stroke="#1676A8" stroke-width="2"/>
  
  <!-- Top Navigation -->
  <rect x="60" y="60" width="680" height="44" rx="8" fill="#172432"/>
  <circle cx="85" cy="82" r="6" fill="#FFB92E"/>
  <circle cx="105" cy="82" r="6" fill="#FF7A45"/>
  <circle cx="125" cy="82" r="6" fill="#79B98B"/>
  <text x="150" y="87" font-family="system-ui, sans-serif" font-size="12" fill="#FFFFFF" font-weight="700">IGLOO OMS // Enterprise Order Management System</text>
  
  <!-- Left Sidebar -->
  <rect x="60" y="116" width="160" height="324" rx="8" fill="#FFF8EC" stroke="#1676A8" stroke-opacity="0.2"/>
  <rect x="75" y="135" width="130" height="28" rx="6" fill="#1676A8"/>
  <text x="95" y="153" font-family="system-ui, sans-serif" font-size="11" fill="#FFFFFF" font-weight="700">Orders Queue</text>
  <rect x="75" y="173" width="130" height="24" rx="5" fill="#EAF6FA"/>
  <rect x="75" y="207" width="130" height="24" rx="5" fill="#EAF6FA"/>
  <rect x="75" y="241" width="130" height="24" rx="5" fill="#EAF6FA"/>

  <!-- Main Content Cards -->
  <rect x="235" y="116" width="505" height="90" rx="8" fill="#F8FAFC" stroke="#E2E8F0"/>
  <text x="255" y="145" font-family="system-ui, sans-serif" font-size="11" font-weight="700" fill="#1676A8">LIVE DISPATCH TELEMETRY</text>
  <text x="255" y="180" font-family="system-ui, sans-serif" font-size="24" font-weight="900" fill="#172432">42 Active Routes</text>

  <!-- Table Mockup -->
  <rect x="235" y="220" width="505" height="220" rx="8" fill="#FFFFFF" stroke="#1676A8" stroke-opacity="0.2"/>
  <line x1="235" y1="255" x2="740" y2="255" stroke="#E2E8F0" stroke-width="1.5"/>
  <text x="255" y="243" font-family="system-ui, sans-serif" font-size="12" font-weight="700" fill="#172432">Recent Distributor Orders</text>
  
  <rect x="255" y="275" width="140" height="12" rx="3" fill="#CDEAF4"/>
  <rect x="420" y="275" width="90" height="12" rx="3" fill="#79B98B"/>
  <rect x="620" y="275" width="80" height="12" rx="3" fill="#FFB92E"/>

  <rect x="255" y="305" width="160" height="12" rx="3" fill="#CDEAF4"/>
  <rect x="420" y="305" width="110" height="12" rx="3" fill="#79B98B"/>
  <rect x="620" y="305" width="70" height="12" rx="3" fill="#FFB92E"/>
</svg>
