<svg xmlns="http://www.w3.org/2000/svg" viewBox="0 0 800 500" width="100%" height="100%">
  <defs>
    <linearGradient id="agroGrad" x1="0%" y1="0%" x2="100%" y2="100%">
      <stop offset="0%" stop-color="#DAF0DE"/>
      <stop offset="100%" stop-color="#FFF8EC"/>
    </linearGradient>
  </defs>
  <rect width="800" height="500" fill="url(#agroGrad)"/>
  
  <!-- Dashboard Main Frame -->
  <rect x="40" y="40" width="720" height="420" rx="12" fill="#FFFFFF" stroke="#478B5A" stroke-width="2"/>
  
  <!-- Header Bar -->
  <rect x="60" y="60" width="680" height="44" rx="8" fill="#203229"/>
  <circle cx="85" cy="82" r="6" fill="#79B98B"/>
  <circle cx="105" cy="82" r="6" fill="#FFB92E"/>
  <circle cx="125" cy="82" r="6" fill="#FF7A45"/>
  <text x="150" y="87" font-family="system-ui, sans-serif" font-size="12" fill="#FFFFFF" font-weight="700">NAFIS AGRO // Supply Chain &amp; B2B Trading Platform</text>
  
  <!-- Farm Yield Stats Cards -->
  <rect x="60" y="120" width="210" height="100" rx="8" fill="#F0F9F2" stroke="#478B5A" stroke-opacity="0.3"/>
  <text x="80" y="150" font-family="system-ui, sans-serif" font-size="11" font-weight="700" fill="#478B5A">CROP YIELD TELEMETRY</text>
  <text x="80" y="185" font-family="system-ui, sans-serif" font-size="22" font-weight="900" fill="#203229">Verified Harvests</text>

  <rect x="290" y="120" width="210" height="100" rx="8" fill="#F0F9F2" stroke="#478B5A" stroke-opacity="0.3"/>
  <text x="310" y="150" font-family="system-ui, sans-serif" font-size="11" font-weight="700" fill="#478B5A">B2B TRADING VOLUME</text>
  <text x="310" y="185" font-family="system-ui, sans-serif" font-size="22" font-weight="900" fill="#203229">Regional Logistics</text>

  <rect x="520" y="120" width="220" height="100" rx="8" fill="#FFF8EC" stroke="#FFB92E"/>
  <text x="540" y="150" font-family="system-ui, sans-serif" font-size="11" font-weight="700" fill="#E18B23">PRICING CATALOG</text>
  <text x="540" y="185" font-family="system-ui, sans-serif" font-size="20" font-weight="900" fill="#172432">Real-time Rates</text>

  <!-- Marketplace Listing Grid -->
  <rect x="60" y="240" width="680" height="200" rx="8" fill="#FFFFFF" stroke="#478B5A" stroke-opacity="0.2"/>
  <line x1="60" y1="280" x2="740" y2="280" stroke="#E2E8F0" stroke-width="1.5"/>
  <text x="80" y="267" font-family="system-ui, sans-serif" font-size="12" font-weight="700" fill="#203229">Active B2B Agricultural Produce Listings</text>
  
  <rect x="80" y="300" width="180" height="12" rx="3" fill="#DAF0DE"/>
  <rect x="280" y="300" width="120" height="12" rx="3" fill="#79B98B"/>
  <rect x="600" y="300" width="100" height="12" rx="3" fill="#FFB92E"/>

  <rect x="80" y="335" width="200" height="12" rx="3" fill="#DAF0DE"/>
  <rect x="280" y="335" width="140" height="12" rx="3" fill="#79B98B"/>
  <rect x="600" y="335" width="90" height="12" rx="3" fill="#FFB92E"/>
</svg>
